<svg width="356.64300000000003" height="59.36" xmlns="http://www.w3.org/2000/svg">
 <defs>
  <linearGradient y2="0.031703" y1="1.246343" x2="0.97694" x1="-0.024517" id="b">
   <stop stop-color="#767A81" offset="0"/>
   <stop stop-color="#909399" offset="0.155"/>
   <stop stop-color="#D1D2D5" offset="0.484"/>
   <stop stop-color="#EAEBEC" offset="0.604"/>
   <stop stop-color="#E9EAEB" offset="0.607"/>
   <stop stop-color="#999CA1" offset="0.798"/>
   <stop stop-color="#676B73" offset="0.933"/>
   <stop stop-color="#545861" offset="1"/>
  </linearGradient>
 </defs>
 <g>
  <title>background</title>
  <rect fill="none" id="canvas_background" height="402" width="582" y="-1" x="-1"/>
 </g>
 <g>
  <title>Layer 1</title>
  <path id="svg_3" d="m30.27,43.35s8.92,-1.618 19.054,-1.448l8.812,-9.975c-5.232,0.336 -10.148,0.908 -14.724,1.63l-13.14,9.792l-0.002,0.001zm20.266,-15.104l10.85,0l20.89,-23.65l-31.74,23.65z" fill="#005288"/>
  <path id="svg_4" d="m49.323,41.9c4.225,0.073 8.66,0.458 12.754,1.4l6.116,-11.722c-3.47,0.018 -6.823,0.135 -10.06,0.348l-8.81,9.975l0,-0.001zm12.06,-13.652l8.548,0l12.35,-23.65l-20.89,23.65l-0.008,0z" fill="url(#b)"/>
  <text font-weight="bold" transform="matrix(1.0181828315953467,0,0,1,-1.8163786348133542,0) " xml:space="preserve" text-anchor="start" font-family="Euphoria, sans-serif" font-size="29" id="svg_5" y="39.116974" x="86.559338" stroke-width="0" fill="#005288">XYZ Insurance</text>
 </g>
</svg>